<mxfile host="app.diagrams.net" modified="2025-09-05T12:00:00.000Z" agent="draw.io" version="22.0.0">
  <diagram name="Wireframes - FinWise Advisor" id="wireframes">
    <mxGraphModel dx="1800" dy="1200" grid="1" gridSize="10" guides="1" tooltips="1" connect="1" arrows="1" fold="1" page="1" pageScale="1" pageWidth="1600" pageHeight="2400" math="0" shadow="0">
      <root>
        <mxCell id="0" />
        <mxCell id="1" parent="0" />
        
        <!-- WIREFRAME 1: LOGIN PAGE -->
        <mxCell id="login-frame" value="1. LOGIN PAGE" style="text;html=1;strokeColor=none;fillColor=none;align=center;verticalAlign=middle;whiteSpace=wrap;rounded=0;fontStyle=1;fontSize=16;" vertex="1" parent="1">
          <mxGeometry x="50" y="20" width="200" height="30" as="geometry" />
        </mxCell>
        
        <mxCell id="login-container" value="" style="rounded=0;whiteSpace=wrap;html=1;fillColor=none;strokeColor=#000000;strokeWidth=2;" vertex="1" parent="1">
          <mxGeometry x="50" y="60" width="350" height="400" as="geometry" />
        </mxCell>
        
        <mxCell id="login-header" value="FinWise Advisor" style="rounded=0;whiteSpace=wrap;html=1;fillColor=#f5f5f5;strokeColor=#666666;fontStyle=1;fontSize=18;" vertex="1" parent="1">
          <mxGeometry x="70" y="80" width="310" height="40" as="geometry" />
        </mxCell>
        
        <mxCell id="login-form" value="LOGIN FORM" style="rounded=0;whiteSpace=wrap;html=1;fillColor=#e1d5e7;strokeColor=#9673a6;fontStyle=1;" vertex="1" parent="1">
          <mxGeometry x="90" y="150" width="270" height="30" as="geometry" />
        </mxCell>
        
        <mxCell id="username-field" value="[Username Field]" style="rounded=0;whiteSpace=wrap;html=1;fillColor=#ffffff;strokeColor=#000000;" vertex="1" parent="1">
          <mxGeometry x="110" y="200" width="230" height="30" as="geometry" />
        </mxCell>
        
        <mxCell id="password-field" value="[Password Field]" style="rounded=0;whiteSpace=wrap;html=1;fillColor=#ffffff;strokeColor=#000000;" vertex="1" parent="1">
          <mxGeometry x="110" y="250" width="230" height="30" as="geometry" />
        </mxCell>
        
        <mxCell id="login-button" value="LOGIN" style="rounded=0;whiteSpace=wrap;html=1;fillColor=#dae8fc;strokeColor=#6c8ebf;fontStyle=1;" vertex="1" parent="1">
          <mxGeometry x="110" y="300" width="100" height="35" as="geometry" />
        </mxCell>
        
        <mxCell id="register-link" value="[Register Link]" style="text;html=1;strokeColor=none;fillColor=none;align=center;verticalAlign=middle;whiteSpace=wrap;rounded=0;textDecoration=underline;" vertex="1" parent="1">
          <mxGeometry x="110" y="350" width="100" height="20" as="geometry" />
        </mxCell>
        
        <!-- WIREFRAME 2: DASHBOARD -->
        <mxCell id="dashboard-frame" value="2. DASHBOARD (Main View)" style="text;html=1;strokeColor=none;fillColor=none;align=center;verticalAlign=middle;whiteSpace=wrap;rounded=0;fontStyle=1;fontSize=16;" vertex="1" parent="1">
          <mxGeometry x="450" y="20" width="250" height="30" as="geometry" />
        </mxCell>
        
        <mxCell id="dashboard-container" value="" style="rounded=0;whiteSpace=wrap;html=1;fillColor=none;strokeColor=#000000;strokeWidth=2;" vertex="1" parent="1">
          <mxGeometry x="450" y="60" width="500" height="600" as="geometry" />
        </mxCell>
        
        <!-- Navigation Header -->
        <mxCell id="nav-header" value="NAVIGATION BAR" style="rounded=0;whiteSpace=wrap;html=1;fillColor=#f5f5f5;strokeColor=#666666;fontStyle=1;" vertex="1" parent="1">
          <mxGeometry x="470" y="80" width="460" height="40" as="geometry" />
        </mxCell>
        
        <mxCell id="nav-links" value="Dashboard | Import | Categories | Budgets | Logout" style="text;html=1;strokeColor=none;fillColor=none;align=center;verticalAlign=middle;whiteSpace=wrap;rounded=0;" vertex="1" parent="1">
          <mxGeometry x="490" y="85" width="420" height="30" as="geometry" />
        </mxCell>
        
        <!-- Summary Cards -->
        <mxCell id="summary-title" value="ACCOUNT SUMMARY" style="rounded=0;whiteSpace=wrap;html=1;fillColor=#e1d5e7;strokeColor=#9673a6;fontStyle=1;" vertex="1" parent="1">
          <mxGeometry x="470" y="140" width="460" height="30" as="geometry" />
        </mxCell>
        
        <mxCell id="balance-card" value="Current Balance&#xa;$4,237.62" style="rounded=0;whiteSpace=wrap;html=1;fillColor=#d5e8d4;strokeColor=#82b366;fontStyle=1;" vertex="1" parent="1">
          <mxGeometry x="490" y="180" width="130" height="60" as="geometry" />
        </mxCell>
        
        <mxCell id="income-card" value="This Month Income&#xa;$2,543.21" style="rounded=0;whiteSpace=wrap;html=1;fillColor=#fff2cc;strokeColor=#d6b656;fontStyle=1;" vertex="1" parent="1">
          <mxGeometry x="640" y="180" width="130" height="60" as="geometry" />
        </mxCell>
        
        <mxCell id="expenses-card" value="This Month Expenses&#xa;$273.59" style="rounded=0;whiteSpace=wrap;html=1;fillColor=#f8cecc;strokeColor=#b85450;fontStyle=1;" vertex="1" parent="1">
          <mxGeometry x="790" y="180" width="130" height="60" as="geometry" />
        </mxCell>
        
        <!-- Recent Transactions -->
        <mxCell id="transactions-title" value="RECENT TRANSACTIONS" style="rounded=0;whiteSpace=wrap;html=1;fillColor=#e1d5e7;strokeColor=#9673a6;fontStyle=1;" vertex="1" parent="1">
          <mxGeometry x="470" y="260" width="460" height="30" as="geometry" />
        </mxCell>
        
        <mxCell id="transaction-header" value="Date | Description | Category | Amount" style="rounded=0;whiteSpace=wrap;html=1;fillColor=#f5f5f5;strokeColor=#666666;fontStyle=1;" vertex="1" parent="1">
          <mxGeometry x="490" y="300" width="420" height="25" as="geometry" />
        </mxCell>
        
        <mxCell id="transaction-1" value="12/02 | SUPERMART GROCERIES | Food | -$85.42" style="rounded=0;whiteSpace=wrap;html=1;fillColor=#ffffff;strokeColor=#000000;" vertex="1" parent="1">
          <mxGeometry x="490" y="325" width="420" height="25" as="geometry" />
        </mxCell>
        
        <mxCell id="transaction-2" value="12/05 | ABC CORPORATION | Income | +$2,543.21" style="rounded=0;whiteSpace=wrap;html=1;fillColor=#ffffff;strokeColor=#000000;" vertex="1" parent="1">
          <mxGeometry x="490" y="350" width="420" height="25" as="geometry" />
        </mxCell>
        
        <mxCell id="transaction-3" value="12/10 | ELECTRIC COMPANY | Utilities | -$120.00" style="rounded=0;whiteSpace=wrap;html=1;fillColor=#ffffff;strokeColor=#000000;" vertex="1" parent="1">
          <mxGeometry x="490" y="375" width="420" height="25" as="geometry" />
        </mxCell>
        
        <!-- Quick Actions -->
        <mxCell id="actions-title" value="QUICK ACTIONS" style="rounded=0;whiteSpace=wrap;html=1;fillColor=#e1d5e7;strokeColor=#9673a6;fontStyle=1;" vertex="1" parent="1">
          <mxGeometry x="470" y="420" width="460" height="30" as="geometry" />
        </mxCell>
        
        <mxCell id="import-btn" value="Import Transactions" style="rounded=0;whiteSpace=wrap;html=1;fillColor=#dae8fc;strokeColor=#6c8ebf;fontStyle=1;" vertex="1" parent="1">
          <mxGeometry x="490" y="470" width="130" height="40" as="geometry" />
        </mxCell>
        
        <mxCell id="categories-btn" value="Manage Categories" style="rounded=0;whiteSpace=wrap;html=1;fillColor=#dae8fc;strokeColor=#6c8ebf;fontStyle=1;" vertex="1" parent="1">
          <mxGeometry x="640" y="470" width="130" height="40" as="geometry" />
        </mxCell>
        
        <mxCell id="budgets-btn" value="View Budgets" style="rounded=0;whiteSpace=wrap;html=1;fillColor=#dae8fc;strokeColor=#6c8ebf;fontStyle=1;" vertex="1" parent="1">
          <mxGeometry x="790" y="470" width="130" height="40" as="geometry" />
        </mxCell>
        
        <!-- WIREFRAME 3: IMPORT TRANSACTIONS -->
        <mxCell id="import-frame" value="3. IMPORT TRANSACTIONS" style="text;html=1;strokeColor=none;fillColor=none;align=center;verticalAlign=middle;whiteSpace=wrap;rounded=0;fontStyle=1;fontSize=16;" vertex="1" parent="1">
          <mxGeometry x="1000" y="20" width="250" height="30" as="geometry" />
        </mxCell>
        
        <mxCell id="import-container" value="" style="rounded=0;whiteSpace=wrap;html=1;fillColor=none;strokeColor=#000000;strokeWidth=2;" vertex="1" parent="1">
          <mxGeometry x="1000" y="60" width="450" height="500" as="geometry" />
        </mxCell>
        
        <!-- Navigation Header -->
        <mxCell id="import-nav" value="NAVIGATION BAR" style="rounded=0;whiteSpace=wrap;html=1;fillColor=#f5f5f5;strokeColor=#666666;fontStyle=1;" vertex="1" parent="1">
          <mxGeometry x="1020" y="80" width="410" height="40" as="geometry" />
        </mxCell>
        
        <!-- File Upload Section -->
        <mxCell id="upload-title" value="UPLOAD OFX FILE" style="rounded=0;whiteSpace=wrap;html=1;fillColor=#e1d5e7;strokeColor=#9673a6;fontStyle=1;" vertex="1" parent="1">
          <mxGeometry x="1020" y="140" width="410" height="30" as="geometry" />
        </mxCell>
        
        <mxCell id="file-input" value="[Choose File Button] No file chosen" style="rounded=0;whiteSpace=wrap;html=1;fillColor=#ffffff;strokeColor=#000000;" vertex="1" parent="1">
          <mxGeometry x="1040" y="190" width="370" height="35" as="geometry" />
        </mxCell>
        
        <mxCell id="upload-btn" value="UPLOAD & PREVIEW" style="rounded=0;whiteSpace=wrap;html=1;fillColor=#dae8fc;strokeColor=#6c8ebf;fontStyle=1;" vertex="1" parent="1">
          <mxGeometry x="1040" y="245" width="150" height="35" as="geometry" />
        </mxCell>
        
        <!-- Preview Section -->
        <mxCell id="preview-title" value="TRANSACTION PREVIEW" style="rounded=0;whiteSpace=wrap;html=1;fillColor=#e1d5e7;strokeColor=#9673a6;fontStyle=1;" vertex="1" parent="1">
          <mxGeometry x="1020" y="300" width="410" height="30" as="geometry" />
        </mxCell>
        
        <mxCell id="preview-header" value="☑ Select | Date | Description | Amount" style="rounded=0;whiteSpace=wrap;html=1;fillColor=#f5f5f5;strokeColor=#666666;fontStyle=1;" vertex="1" parent="1">
          <mxGeometry x="1040" y="340" width="370" height="25" as="geometry" />
        </mxCell>
        
        <mxCell id="preview-1" value="☑ | 12/02 | SUPERMART GROCERIES | -$85.42" style="rounded=0;whiteSpace=wrap;html=1;fillColor=#ffffff;strokeColor=#000000;" vertex="1" parent="1">
          <mxGeometry x="1040" y="365" width="370" height="25" as="geometry" />
        </mxCell>
        
        <mxCell id="preview-2" value="☑ | 12/05 | ABC CORPORATION | +$2,543.21" style="rounded=0;whiteSpace=wrap;html=1;fillColor=#ffffff;strokeColor=#000000;" vertex="1" parent="1">
          <mxGeometry x="1040" y="390" width="370" height="25" as="geometry" />
        </mxCell>
        
        <mxCell id="import-final-btn" value="IMPORT SELECTED" style="rounded=0;whiteSpace=wrap;html=1;fillColor=#d5e8d4;strokeColor=#82b366;fontStyle=1;" vertex="1" parent="1">
          <mxGeometry x="1040" y="440" width="150" height="35" as="geometry" />
        </mxCell>
        
        <!-- WIREFRAME 4: CATEGORIES MANAGEMENT -->
        <mxCell id="categories-frame" value="4. CATEGORIES MANAGEMENT" style="text;html=1;strokeColor=none;fillColor=none;align=center;verticalAlign=middle;whiteSpace=wrap;rounded=0;fontStyle=1;fontSize=16;" vertex="1" parent="1">
          <mxGeometry x="50" y="500" width="280" height="30" as="geometry" />
        </mxCell>
        
        <mxCell id="categories-container" value="" style="rounded=0;whiteSpace=wrap;html=1;fillColor=none;strokeColor=#000000;strokeWidth=2;" vertex="1" parent="1">
          <mxGeometry x="50" y="540" width="500" height="500" as="geometry" />
        </mxCell>
        
        <!-- Navigation -->
        <mxCell id="cat-nav" value="NAVIGATION BAR" style="rounded=0;whiteSpace=wrap;html=1;fillColor=#f5f5f5;strokeColor=#666666;fontStyle=1;" vertex="1" parent="1">
          <mxGeometry x="70" y="560" width="460" height="40" as="geometry" />
        </mxCell>
        
        <!-- Categories List -->
        <mxCell id="cat-list-title" value="EXPENSE CATEGORIES" style="rounded=0;whiteSpace=wrap;html=1;fillColor=#e1d5e7;strokeColor=#9673a6;fontStyle=1;" vertex="1" parent="1">
          <mxGeometry x="70" y="620" width="460" height="30" as="geometry" />
        </mxCell>
        
        <mxCell id="cat-header" value="Category Name | Color | Actions" style="rounded=0;whiteSpace=wrap;html=1;fillColor=#f5f5f5;strokeColor=#666666;fontStyle=1;" vertex="1" parent="1">
          <mxGeometry x="90" y="660" width="420" height="25" as="geometry" />
        </mxCell>
        
        <mxCell id="cat-food" value="Food & Dining | 🟢 | [Edit] [Delete]" style="rounded=0;whiteSpace=wrap;html=1;fillColor=#ffffff;strokeColor=#000000;" vertex="1" parent="1">
          <mxGeometry x="90" y="685" width="420" height="25" as="geometry" />
        </mxCell>
        
        <mxCell id="cat-utilities" value="Utilities | 🔵 | [Edit] [Delete]" style="rounded=0;whiteSpace=wrap;html=1;fillColor=#ffffff;strokeColor=#000000;" vertex="1" parent="1">
          <mxGeometry x="90" y="710" width="420" height="25" as="geometry" />
        </mxCell>
        
        <mxCell id="cat-transport" value="Transportation | 🟡 | [Edit] [Delete]" style="rounded=0;whiteSpace=wrap;html=1;fillColor=#ffffff;strokeColor=#000000;" vertex="1" parent="1">
          <mxGeometry x="90" y="735" width="420" height="25" as="geometry" />
        </mxCell>
        
        <!-- Add New Category -->
        <mxCell id="add-cat-title" value="ADD NEW CATEGORY" style="rounded=0;whiteSpace=wrap;html=1;fillColor=#e1d5e7;strokeColor=#9673a6;fontStyle=1;" vertex="1" parent="1">
          <mxGeometry x="70" y="780" width="460" height="30" as="geometry" />
        </mxCell>
        
        <mxCell id="cat-name-input" value="[Category Name Input]" style="rounded=0;whiteSpace=wrap;html=1;fillColor=#ffffff;strokeColor=#000000;" vertex="1" parent="1">
          <mxGeometry x="90" y="820" width="200" height="30" as="geometry" />
        </mxCell>
        
        <mxCell id="cat-color-picker" value="[Color Picker]" style="rounded=0;whiteSpace=wrap;html=1;fillColor=#ffffff;strokeColor=#000000;" vertex="1" parent="1">
          <mxGeometry x="310" y="820" width="100" height="30" as="geometry" />
        </mxCell>
        
        <mxCell id="add-cat-btn" value="ADD CATEGORY" style="rounded=0;whiteSpace=wrap;html=1;fillColor=#d5e8d4;strokeColor=#82b366;fontStyle=1;" vertex="1" parent="1">
          <mxGeometry x="90" y="870" width="120" height="35" as="geometry" />
        </mxCell>
        
        <!-- WIREFRAME 5: BUDGETS VIEW -->
        <mxCell id="budgets-frame" value="5. BUDGETS VIEW" style="text;html=1;strokeColor=none;fillColor=none;align=center;verticalAlign=middle;whiteSpace=wrap;rounded=0;fontStyle=1;fontSize=16;" vertex="1" parent="1">
          <mxGeometry x="600" y="500" width="200" height="30" as="geometry" />
        </mxCell>
        
        <mxCell id="budgets-container" value="" style="rounded=0;whiteSpace=wrap;html=1;fillColor=none;strokeColor=#000000;strokeWidth=2;" vertex="1" parent="1">
          <mxGeometry x="600" y="540" width="500" height="600" as="geometry" />
        </mxCell>
        
        <!-- Navigation -->
        <mxCell id="budget-nav" value="NAVIGATION BAR" style="rounded=0;whiteSpace=wrap;html=1;fillColor=#f5f5f5;strokeColor=#666666;fontStyle=1;" vertex="1" parent="1">
          <mxGeometry x="620" y="560" width="460" height="40" as="geometry" />
        </mxCell>
        
        <!-- Monthly Overview -->
        <mxCell id="budget-overview" value="MONTHLY BUDGET OVERVIEW - December 2024" style="rounded=0;whiteSpace=wrap;html=1;fillColor=#e1d5e7;strokeColor=#9673a6;fontStyle=1;" vertex="1" parent="1">
          <mxGeometry x="620" y="620" width="460" height="30" as="geometry" />
        </mxCell>
        
        <!-- Budget Categories -->
        <mxCell id="budget-header" value="Category | Budget | Spent | Remaining | Progress" style="rounded=0;whiteSpace=wrap;html=1;fillColor=#f5f5f5;strokeColor=#666666;fontStyle=1;" vertex="1" parent="1">
          <mxGeometry x="640" y="670" width="420" height="25" as="geometry" />
        </mxCell>
        
        <mxCell id="budget-food" value="Food | $300 | $85.42 | $214.58 | ████░░░░░░ 28%" style="rounded=0;whiteSpace=wrap;html=1;fillColor=#ffffff;strokeColor=#000000;" vertex="1" parent="1">
          <mxGeometry x="640" y="695" width="420" height="30" as="geometry" />
        </mxCell>
        
        <mxCell id="budget-utilities" value="Utilities | $200 | $120.00 | $80.00 | ██████░░░░ 60%" style="rounded=0;whiteSpace=wrap;html=1;fillColor=#ffffff;strokeColor=#000000;" vertex="1" parent="1">
          <mxGeometry x="640" y="725" width="420" height="30" as="geometry" />
        </mxCell>
        
        <mxCell id="budget-transport" value="Transport | $150 | $45.67 | $104.33 | ███░░░░░░░ 30%" style="rounded=0;whiteSpace=wrap;html=1;fillColor=#ffffff;strokeColor=#000000;" vertex="1" parent="1">
          <mxGeometry x="640" y="755" width="420" height="30" as="geometry" />
        </mxCell>
        
        <!-- Total Summary -->
        <mxCell id="budget-total" value="TOTAL: $650 budgeted | $251.09 spent | $398.91 remaining" style="rounded=0;whiteSpace=wrap;html=1;fillColor=#d5e8d4;strokeColor=#82b366;fontStyle=1;" vertex="1" parent="1">
          <mxGeometry x="620" y="800" width="460" height="40" as="geometry" />
        </mxCell>
        
        <!-- Budget Actions -->
        <mxCell id="budget-actions" value="BUDGET ACTIONS" style="rounded=0;whiteSpace=wrap;html=1;fillColor=#e1d5e7;strokeColor=#9673a6;fontStyle=1;" vertex="1" parent="1">
          <mxGeometry x="620" y="860" width="460" height="30" as="geometry" />
        </mxCell>
        
        <mxCell id="new-budget-btn" value="Create New Budget" style="rounded=0;whiteSpace=wrap;html=1;fillColor=#dae8fc;strokeColor=#6c8ebf;fontStyle=1;" vertex="1" parent="1">
          <mxGeometry x="640" y="910" width="130" height="35" as="geometry" />
        </mxCell>
        
        <mxCell id="edit-budget-btn" value="Edit Budgets" style="rounded=0;whiteSpace=wrap;html=1;fillColor=#dae8fc;strokeColor=#6c8ebf;fontStyle=1;" vertex="1" parent="1">
          <mxGeometry x="790" y="910" width="130" height="35" as="geometry" />
        </mxCell>
        
        <!-- Notes Section -->
        <mxCell id="notes-title" value="WIREFRAME NOTES" style="text;html=1;strokeColor=none;fillColor=none;align=left;verticalAlign=middle;whiteSpace=wrap;rounded=0;fontStyle=1;fontSize=14;" vertex="1" parent="1">
          <mxGeometry x="50" y="1200" width="200" height="30" as="geometry" />
        </mxCell>
        
        <mxCell id="notes-content" value="What: Main content groups identified&#xa;- User authentication (login/register)&#xa;- Financial dashboard with summary cards&#xa;- Transaction management (import, view, categorize)&#xa;- Category management (CRUD operations)&#xa;- Budget tracking and visualization&#xa;&#xa;Where: Information structure&#xa;- Header navigation consistent across all pages&#xa;- Main content area with clear sections&#xa;- Action buttons prominently placed&#xa;- Data tables for transactions and categories&#xa;&#xa;How: User interface interactions&#xa;- Form-based inputs for login and data entry&#xa;- File upload interface for OFX imports&#xa;- Checkbox selection for transaction importing&#xa;- CRUD operations with edit/delete buttons&#xa;- Visual progress bars for budget tracking&#xa;- Color-coded categories and status indicators" style="text;html=1;strokeColor=#000000;fillColor=#f5f5f5;align=left;verticalAlign=top;whiteSpace=wrap;rounded=0;fontSize=12;" vertex="1" parent="1">
          <mxGeometry x="50" y="1240" width="600" height="300" as="geometry" />
        </mxCell>
        
      </root>
    </mxGraphModel>
  </diagram>
</mxfile>